<svg width="1097" height="439" viewBox="0 0 1097 439" fill="none" xmlns="http://www.w3.org/2000/svg">
<path d="M-771 329.605H-169.885C-169.885 329.605 -140.741 285.993 -122.211 309.776C-122.211 309.776 -116.474 329.204 -103.566 328C-90.6581 326.797 -37.1327 328 -37.1327 328C-37.1327 328 -18.2008 323.243 -16.996 354.075L13.8112 1L42.4958 433.447L54.3139 338.659C54.3139 338.659 44.6759 321.925 92.0055 316.195C96.6674 316.659 101.366 315.797 105.558 313.708C109.75 311.619 113.266 308.389 115.699 304.389C125.222 290.177 150.121 240.376 150.121 240.376C150.121 240.376 171.462 210.748 192.803 240.376L222.463 305.535C222.463 305.535 233.134 326.854 254.475 319.748C268.423 315.622 283.268 315.622 297.215 319.748C307.739 326.778 320.124 330.51 332.784 330.464H465.594C465.594 330.464 479.879 330.464 483.436 322.155C486.993 313.845 503.573 288.973 521.357 307.942L529.675 322.155C529.675 322.155 537.994 331.61 542.698 330.464C547.403 329.318 610.337 328.057 610.337 328.057C610.337 328.057 621.007 325.708 623.359 344.677L626.916 356.482L654.224 3.34965L685.031 437L696.907 339.863C696.907 339.863 700.464 322.097 717.044 322.097C733.623 322.097 755.022 319.69 760.931 306.681C766.84 293.672 794.148 242.726 794.148 242.726C794.148 242.726 813.137 205.991 834.306 236.995L862.991 302.154C862.991 302.154 872.571 324.332 896.208 321.123H1097" stroke="#FCFCFC" stroke-width="17" stroke-miterlimit="10"/>
</svg>
