<svg id="Layer_1" data-name="Layer 1" xmlns="http://www.w3.org/2000/svg" viewBox="0 0 348.22 342.5"><defs><style>.cls-1{fill:#fff;}</style></defs><title>Accessible</title><path fill="white" d="M243.21,395.66c8.57-2.05,16.94-4.61,25.51-6,32.65-5.32,62.15,2.17,87.5,23.53,10.7,9,22.82,13,36.3,14,10.1.72,20.24.83,30.32,1.6a39.09,39.09,0,0,1,11.61,2.62c8.21,3.34,11.33,11.45,8.41,20.6-1.93,6.08-5.93,10.63-11.06,14.22-12.46,8.73-26.71,12.16-41.57,13.33a94.35,94.35,0,0,1-34.86-3.44c-3.85-1.16-8-1.4-12-2.06l-.45,1.29a51.69,51.69,0,0,0,6.11,2.81c9.64,3,19.18,6.62,29,8.63,5.54,1.13,11.8.37,17.45-.85,29.87-6.47,59.63-13.46,89.48-20A75.32,75.32,0,0,1,503.17,464c11.87.35,22.27,11.41,21.86,22.39a17.48,17.48,0,0,1-7.56,14A94.63,94.63,0,0,1,499,510.87c-34.87,14-70.76,24.44-108,29.89-23.22,3.41-46.64,5.09-69.66-.67-11.28-2.82-22.11-7.66-32.92-12.12-14.07-5.8-27.92-12.13-41.87-18.22-1-.45-2.07-.81-3.23-1.26-.37.65-.7,1.17-1,1.72-4.2,8.75-11.24,13.1-20.87,13.25q-10.69.16-21.38,0c-14.35-.24-23.29-9.31-23.3-23.62q0-47.53,0-95.08c0-14.46,9.11-23.46,23.69-23.54,5.62,0,11.25,0,16.88,0C231.85,381.22,236.39,383.8,243.21,395.66Zm1.14,56.48c0,12.23.1,24.46-.07,36.68-.05,2.86,1,4.09,3.5,5.18,17.32,7.42,34.51,15.14,51.85,22.49,7.79,3.3,15.64,6.76,23.81,8.77,22.22,5.49,44.69,3.79,67,.48,30.85-4.56,60.78-12.87,90-23.71a266.69,266.69,0,0,0,25.22-11.27c1.91-.95,4.44-4.24,4-5.54-.79-2.33-3.46-4.19-5.68-5.79-1.05-.76-2.9-.74-4.34-.57a126.45,126.45,0,0,0-12.56,1.91c-30.08,6.7-60.08,13.72-90.23,20.07a56.91,56.91,0,0,1-21.55.69c-10.36-1.93-20.5-5.43-30.44-9a49,49,0,0,1-14.35-8.43,13.28,13.28,0,0,1-4.24-14.62c1.74-5.67,6.29-8.12,11.7-9.26,7-1.49,13.95-.62,20.73,1.35a86.4,86.4,0,0,0,41.53,1.59c8.75-1.75,17.32-4.22,24.2-10.22,2-1.75,2.95-4.68,4.39-7.07-2.41-.72-4.77-1.93-7.21-2.1-10-.67-20-.81-29.95-1.56-15.86-1.2-30.61-5.38-43.12-16C318.05,400.37,284,397.26,247.4,410.8c-2.37.88-3.15,2.12-3.12,4.66C244.43,427.69,244.35,439.91,244.35,452.14Zm-15,.37c0-16,0-31.93,0-47.89,0-5.69-2.58-8.32-8.19-8.4q-10.5-.12-21,0c-5.86.06-8.29,2.59-8.29,8.58q0,47.52,0,95c0,6.09,2.49,8.58,8.66,8.65,6.37.08,12.75,0,19.12,0,7.34,0,9.71-2.38,9.72-9.6Q229.37,475.71,229.35,452.51Z" transform="translate(-176.82 -201.37)"/><path fill="white" d="M265.09,317.64c4-5,8-9.94,11.84-15,2.76-3.67,6.07-4.78,10.49-3.41,5.48,1.69,11.09,3,16.55,4.73,2.3.74,3.64.34,5.06-1.56,3.45-4.59,7.19-9,10.6-13.57,2.87-3.87,6.32-4.8,10.84-3.39,5.6,1.74,11.31,3.12,16.93,4.79a3.22,3.22,0,0,0,4.09-1.33c2.66-3.62,5.64-7,8.29-10.63,2.93-4,6.05-7.54,11.31-8.58.94-.19,2.06-2,2.23-3.23,4.41-31.75,27.7-56.64,59.54-63.48,42.06-9,84.3,21.28,89.24,63.92,2.39,20.6-2.76,39-15.29,55.47a4.72,4.72,0,0,0-.76,5.34c4.73,12.05,6.75,24.44,4.08,37.35-6.38,30.84-35.32,33.85-53.42,22.3-12.16-7.75-18.72-19.47-22.38-33-.95-3.5-2.54-5-6-5.83a71.25,71.25,0,0,1-34.19-19.89c-1.94-2-3.46-2.35-6.09-1.49q-67.75,22.19-135.63,44.05a17.67,17.67,0,0,1-9,.21c-7.53-1.74-14.93-4-22.36-6.19-6-1.74-7.91-5.23-6-11,3.72-11.1,7.57-22.16,11.29-33.27,1.08-3.23,3.31-4.83,6.36-6.26,10.34-4.82,20.23-5.56,29.76,1.78A12.69,12.69,0,0,0,265.09,317.64Zm231.27-6.49c.77-1,1.32-1.67,1.79-2.38,13.35-20.37,12.71-46.89-1.62-67.23a60,60,0,0,0-108.77,32.32c-.19,3.92-1.64,7.16-5.52,7.93-6.79,1.37-11.1,5.54-14.81,10.94-2.39,3.49-5.31,6.62-7.82,10-2.72,3.7-6.08,4.78-10.49,3.44-5.73-1.74-11.5-3.36-17.33-4.73a4.72,4.72,0,0,0-3.91,1.3c-4,4.65-7.69,9.51-11.45,14.34-2.49,3.21-5.5,4.38-9.54,3.16-5.73-1.74-11.59-3.06-17.29-4.89-2.39-.76-3.62-.13-5,1.71-3.61,4.78-7.35,9.47-11.13,14.11-3.07,3.76-6.26,4.42-10.62,2.28s-8.9-4.53-13.38-6.73c-2.5-1.23-9.22.4-10,2.65-2.74,7.59-5.25,15.26-7.94,23.19,4,1.15,7.73,2.1,11.36,3.31a14.23,14.23,0,0,0,9.44-.17q68.83-22.51,137.75-44.82c5.21-1.7,7.46-1.11,10.62,2.65,14,16.7,31.93,24.34,53.71,22.26,11.82-1.13,22.32-5.73,31.85-13.54-9.81-11-21.3-17.31-36-16.12-16.62,1.34-31.52-11.27-32.43-27.79a30,30,0,1,1,59.94-2.29c0,6.68-2.3,12.6-5.81,18.27A58.93,58.93,0,0,1,496.36,311.15ZM449,351.29c.55,1.76.81,2.86,1.22,3.89,4,9.9,9.39,18.53,20.21,22.14,10,3.35,18.91.08,22.82-8.6,4.81-10.7,3.51-21.5,0-32.7A77.34,77.34,0,0,1,449,351.29Zm-1.36-89.84a14.93,14.93,0,1,0,.32,29.85c7.75-.15,14.8-7.91,14.63-16.09C462.39,267.73,455.49,261.37,447.6,261.45Z" transform="translate(-176.82 -201.37)"/><path fill="white" class="cls-1" d="M447.6,261.45c7.89-.08,14.79,6.28,14.95,13.76.17,8.18-6.88,15.94-14.63,16.09a14.93,14.93,0,1,1-.32-29.85Z" transform="translate(-176.82 -201.37)"/></svg>