<svg id="Layer_1" data-name="Layer 1" xmlns="http://www.w3.org/2000/svg" viewBox="0 0 375.87 333.24"><title>Ethical</title><path fill="white" d="M204.08,270.7a69.36,69.36,0,0,1-31.45-11.63,14.47,14.47,0,0,1-6.1-15.72,14.08,14.08,0,0,1,12.79-10.91,17.63,17.63,0,0,1,9.22,2.21,47.65,47.65,0,0,0,25,6.59c30.51-.15,61-.08,91.54,0,2.53,0,3.78-.63,4.94-3.14,8-17.47,21.77-27.4,41.11-27.36,19.19,0,32.8,9.94,40.82,27.24,1.13,2.42,2.26,3.24,4.88,3.23q46.15-.13,92.29,0a44.24,44.24,0,0,0,23.86-6.5c7.38-4.53,16-2.67,20.45,4.13,4.56,7,2.6,15.64-4.71,20.59a68.1,68.1,0,0,1-30.57,11.2c.77,1.49,1.35,2.69,2,3.85,10.95,19.6,22.08,39.09,32.81,58.8,12.53,23,4.95,51-17.58,64.18-16.19,9.46-33,9.56-49.16,0s-23.78-24.52-23.53-43.17c.11-8.21,3-15.81,7.09-23,10.58-18.66,21-37.41,31.45-56.13.65-1.16,1.24-2.36,2-3.88H393.2c-3.72,9.87-9.68,18.42-19.18,23.4-5.14,2.7-6,5.88-6,11.06q.24,98.07.11,196.14V507c2,0,3.57,0,5.15,0,13.5.19,27.06-.36,40.47.76,14.76,1.24,26.75,15.11,27.34,29.75.2,5.24-.91,6.45-6.21,6.46q-29.62,0-59.27,0H268c-6.45,0-7.46-1.09-7-7.47,1.16-16.37,15.44-29.19,33.13-29.46,11.76-.18,23.51,0,35.27,0h4.52v-4.3q0-100.32.07-200.64c0-3-.88-4.52-3.64-5.95-10.42-5.41-17.4-14-21.52-25H218.82c.74,1.39,1.31,2.54,1.93,3.65,10.95,19.6,22.1,39.08,32.81,58.81a47.68,47.68,0,0,1-19.26,64.85,48.2,48.2,0,0,1-56.8-8c-15.17-15-18.85-37.76-8.66-56.5,10.79-19.82,22-39.43,33-59.13C202.5,273.63,203.13,272.43,204.08,270.7Zm183-14.45c.07-20.39-15.91-36.88-35.86-37a36.34,36.34,0,0,0-36.38,36.46c-.15,20.57,15.89,37.11,36.05,37.15C370.93,292.93,387,276.62,387.12,256.25Zm-44.35,44.93V506.69h16.46V301.18Zm-91.22,49.07c-11.39-26.56-27.17-49.68-40.23-75-12.21,21.9-24,42.85-35.55,63.93-1.8,3.29-2.59,7.13-4,11.1ZM491,275.76a9.9,9.9,0,0,0-1.09,1.2c-11.42,20.43-22.92,40.83-34.18,61.35-2,3.58-2.91,7.71-4.45,11.89h79.09c-1.38-3.92-2.14-7.65-3.89-10.83C514.84,318.21,503,297.17,491,275.76ZM270.1,535h162c-2.28-11.81-11.81-19.32-24.43-19.34q-44.62-.07-89.26,0c-9,0-18-.16-27,.14C280,516.19,270.53,526.46,270.1,535ZM451.68,359.28c-.18,19.16,18.59,36.36,39.24,36.31s39.19-17.13,39.12-36.31Zm-201.2.12H172c1.94,21.37,19.65,37,40.66,36.14C232.92,394.75,250.26,378.36,250.48,359.4ZM395.6,262.51h4.71c30.23-.09,60.45-.31,90.68-.21a57.82,57.82,0,0,0,32.47-9.63c3.93-2.55,4.89-5.94,2.81-9.14-2-3-5.59-3.69-9.25-1.41-8.86,5.53-18.53,7.65-28.89,7.62-29.36-.09-58.71,0-88.07,0H395.6Zm-89.2-12.66h-4.58q-44.43,0-88.87,0a51.53,51.53,0,0,1-27.5-7.34c-4.25-2.6-7.75-2.11-9.78,1.21s-.93,6.53,3.28,9.29c11.18,7.33,23.63,9.52,36.77,9.47,29-.13,58-.05,87,0h3.68Z" transform="translate(-163.1 -210.73)"/><path fill="white" d="M342.65,265.2l20.09-20.11c2.2-2.21,4.36-4.48,6.65-6.6,2-1.87,4.35-2.11,6.33-.08s1.55,4.2-.26,6q-14.68,14.71-29.5,29.33c-2,2-4.28,1.85-6.3-.15-4.35-4.3-8.7-8.61-13-13-2-2-2-4.32,0-6.29s4.2-1.51,6,.31C336,258,339.15,261.49,342.65,265.2Z" transform="translate(-163.1 -210.73)"/></svg>