<svg width="39" height="37" viewBox="0 0 39 37" fill="none" xmlns="http://www.w3.org/2000/svg">
<path d="M13.9071 36.7751L10.6328 31.1743L4.12722 29.8387L4.85963 23.5054L0.723633 18.6801L4.85963 13.8978L4.12722 7.56458L10.6328 6.229L13.9071 0.585083L19.6803 3.25625L25.4535 0.585083L28.7709 6.229L35.2334 7.56458L34.501 13.8978L38.637 18.6801L34.501 23.5054L35.2334 29.8387L28.7709 31.1743L25.4535 36.7751L19.6803 34.1039L13.9071 36.7751ZM15.0704 33.3715L19.6803 31.4328L24.4195 33.3715L27.306 29.0632L32.3468 27.7707L31.8298 22.6438L35.3195 18.6801L31.8298 14.6302L32.3468 9.50333L27.306 8.297L24.3333 3.98867L19.6803 5.92742L14.9411 3.98867L12.0545 8.297L7.0138 9.50333L7.5308 14.6302L4.04105 18.6801L7.5308 22.6438L7.0138 27.8568L12.0545 29.0632L15.0704 33.3715ZM17.8277 24.4102L27.6076 14.7164L25.6689 12.95L17.8277 20.705L13.7348 16.4398L11.753 18.3785L17.8277 24.4102Z" fill="#FEFFFF"/>
</svg>
