<svg width="436" height="366" viewBox="0 0 436 366" fill="none" xmlns="http://www.w3.org/2000/svg">
<path fill-rule="evenodd" clip-rule="evenodd" d="M176.605 -22.4118C209.629 -14.3401 240.232 -6.71981 272.718 3.29754C325.52 19.5791 397.452 7.27191 426.1 54.5205C453.617 99.9024 417.177 158.188 396.188 206.933C376.973 251.558 349.705 291.223 311.342 321.036C271.918 351.672 226.355 381.789 176.605 377.576C128.12 373.469 89.9447 335.789 57.489 299.535C30.1916 269.044 18.6833 229.825 8.78148 190.116C-0.418073 153.223 -2.17112 116.751 2.50084 79.0166C8.28499 32.2991 -1.69031 -30.1351 38.9848 -53.8314C80.6622 -78.1115 129.75 -33.864 176.605 -22.4118Z" fill="white"/>
</svg>
