<?xml version="1.0" encoding="UTF-8"?>
<!DOCTYPE svg PUBLIC "-//W3C//DTD SVG 1.1//EN" "http://www.w3.org/Graphics/SVG/1.1/DTD/svg11.dtd">
<!-- Creator: CorelDRAW X7 -->
<svg xmlns="http://www.w3.org/2000/svg" xml:space="preserve" width="8.5in" height="11in" version="1.1" style="shape-rendering:geometricPrecision; text-rendering:geometricPrecision; image-rendering:optimizeQuality; fill-rule:evenodd; clip-rule:evenodd"
viewBox="0 0 8500 11000"
 xmlns:xlink="http://www.w3.org/1999/xlink">
 <defs>
  <style type="text/css">
   <![CDATA[
    .str0 {stroke:#D2D3D5;stroke-width:177.083}
    .fil0 {fill:none}
   ]]>
  </style>
 </defs>
 <g id="Layer_x0020_1">
  <metadata id="CorelCorpID_0Corel-Layer"/>
  <path class="fil0 str0" d="M-5479 6652l6261 0c0,0 304,-454 497,-206 0,0 60,202 194,189 135,-12 692,0 692,0 0,0 197,-49 210,272l321 -3678 299 4505 123 -988c0,0 -101,-174 392,-234 49,5 98,-4 142,-25 43,-22 80,-56 105,-98 99,-148 359,-666 359,-666 0,0 222,-309 444,0l309 678c0,0 112,222 334,148 145,-43 300,-43 445,0 110,74 239,113 371,112l1383 0c0,0 149,0 186,-86 37,-87 210,-346 395,-149l87 149c0,0 86,98 135,86 49,-12 705,-25 705,-25 0,0 111,-24 135,173l37 123 285 -3678 321 4517 124 -1012c0,0 37,-185 209,-185 173,0 396,-25 457,-161 62,-135 346,-666 346,-666 0,0 198,-383 419,-60l299 679c0,0 99,231 346,198l2091 0"/>
 </g>
</svg>
