<svg id="Layer_1" data-name="Layer 1" xmlns="http://www.w3.org/2000/svg" viewBox="0 0 409.6 345.66"><title>Emphatic</title><path fill="white" d="M557.6,360.22c-1.87,4.95-5.64,6.49-10.69,6.42-11.06-.15-22.13-.11-33.19,0-8.27.06-14.65-3.09-19.15-10.15a5.21,5.21,0,0,0-3.8-1.87c-8.66-.16-17.32-.1-26-.08-20.71,0-38.51-7-53.37-21.5-13.44-13.11-27.09-26-40.55-39.11-9.76-9.5-11.1-22.49-3.58-32.44,7.91-10.47,22.72-12.9,33-4.77,7.71,6.1,14.74,13.08,22,19.68,4.34,3.93,8.71,7.84,13,11.87,4,3.82,4.5,8.55,1.37,12s-7.93,3.53-12.07-.19c-10.39-9.36-20.66-18.85-31-28.26a19.1,19.1,0,0,0-3.78-2.9,7.65,7.65,0,0,0-10.18,10.63,18.45,18.45,0,0,0,3.11,3.62c13.31,12.87,26.69,25.67,40,38.58a57.32,57.32,0,0,0,41.83,16.82c9,0,18.06,0,27.31,0v-47c-2.63-.35-5.36-.61-8.05-1.09-14.5-2.6-26.28-9.8-35.63-21.1-6.11-7.39-12.28-14.73-18.42-22.09-8.82-10.55-20.08-15.89-33.87-15.89q-40.39,0-80.79,0c-5.74,0-9.22,2.29-10.21,6.43-1.39,5.86,2.5,10.65,9,10.74,10.13.13,20.26,0,30.4.06a22.17,22.17,0,0,1,4.74.48,7.66,7.66,0,0,1,6.15,8.13,7.58,7.58,0,0,1-7.25,7.19c-4.79.26-9.6.16-14.39.15-7.33,0-14.68.16-22-.17a24.24,24.24,0,0,1-23-24.11c-.16-12.88,9.61-24,22.4-24.56,13.17-.55,26.38-.31,39.58-.32,15.86,0,31.73-.14,47.59.14,18,.33,32.55,8,44,21.7,6.34,7.54,12.61,15.14,18.95,22.68A42.31,42.31,0,0,0,490,275.22c2.13.23,3.52,0,4.82-2.19,5.16-8.76,18.38-13.11,27.77-9.33a7.82,7.82,0,0,1-1.62,15,75.72,75.72,0,0,1-8,.24c-3.24.06-4.94,1.64-4.94,4.93q0,30.94,0,61.88c0,3.23,1.58,4.92,4.9,4.92,9.33,0,18.65,0,28.61,0v-4.33q0-24,0-47.91c0-3.75,1.13-7.25,4.86-8.31,2.36-.66,5.36.06,7.82.9,1.38.48,2.23,2.46,3.32,3.77Z" transform="translate(-148 -215.34)"/><path fill="white" d="M148,416.12c1.87-5,5.64-6.5,10.69-6.43,11.07.16,22.13.12,33.2,0,8.27-.07,14.65,3.09,19.14,10.16a5.24,5.24,0,0,0,3.81,1.85c8.66.16,17.33.1,26,.08,20.72,0,38.51,7,53.38,21.52,13.44,13.12,27.1,26,40.55,39.12,9.75,9.49,11.07,22.5,3.53,32.45-8,10.57-23,12.93-33.33,4.48-9.47-7.77-18.26-16.35-27.34-24.57-2.56-2.33-5.19-4.6-7.65-7-3.72-3.67-4.07-8.42-1-11.74s7.83-3.51,11.76,0c10.61,9.52,21,19.25,31.67,28.74,1.79,1.6,4.3,3.32,6.48,3.32s5.44-1.45,6.57-3.28c1.23-2,1-5.21.57-7.76-.23-1.45-2-2.75-3.21-3.94-13.31-12.88-26.69-25.68-40-38.59a57.14,57.14,0,0,0-41.46-16.76H213.87v47c2.58.35,5.32.61,8,1.09,14.51,2.6,26.27,9.85,35.61,21.15,6,7.28,12.12,14.51,18.16,21.79,9,10.83,20.47,16.17,34.57,16.14,26.67-.06,53.34,0,80,0,5.84,0,9.33-2.13,10.44-6.17,1.59-5.76-2.3-10.87-8.7-11-9.06-.17-18.13,0-27.2-.07a25.1,25.1,0,0,1-4-.2c-4.8-.8-7.54-4.07-7.22-8.47.31-4.17,3.4-7.13,8.08-7.22,8.13-.15,16.27-.18,24.4,0,4.5.08,9.18,0,13.45,1.15,11.89,3.23,18.76,14.44,17.27,27.08a23.89,23.89,0,0,1-22.58,20.6c-13.72.49-27.46.28-41.19.29-15.33,0-30.67.14-46-.18-17.54-.37-31.81-7.84-43.11-21.09-6.56-7.7-13-15.55-19.48-23.29a42.32,42.32,0,0,0-28.89-15.29c-2.17-.24-3.57,0-4.8,2.23a18.33,18.33,0,0,1-15.11,9.81,54.59,54.59,0,0,1-11.92-.29c-4.18-.59-6.4-3.94-6.17-8a7.63,7.63,0,0,1,7.16-7.28c2.25-.21,4.53-.1,6.79-.13,4.78-.08,6-1.22,6-5.84,0-20.1,0-40.19,0-60.29,0-3.22-.95-5.57-4.65-5.58-9.45,0-18.9,0-28.89,0v4.45q0,22.35,0,44.72c0,3.58-1,7-4.55,8.1-2.35.74-5.39.22-7.83-.59-1.49-.49-2.43-2.61-3.62-4Z" transform="translate(-148 -215.34)"/><path fill="white" d="M557.6,273.17c-.52.74-1,1.49-1.57,2.22-2.21,3-5.2,4.12-8.74,3a7.37,7.37,0,0,1-5.54-7.43,7.28,7.28,0,0,1,5.49-7.43,7.44,7.44,0,0,1,9,3.25c.51.76.93,1.57,1.39,2.36Z" transform="translate(-148 -215.34)"/><path fill="white" d="M148,503.16c.52-.74,1-1.49,1.57-2.21,2.21-3,5.2-4.13,8.74-3a7.76,7.76,0,0,1,.05,14.86,7.45,7.45,0,0,1-9-3.26c-.51-.76-.93-1.57-1.39-2.36Z" transform="translate(-148 -215.34)"/><path fill="white" d="M352.33,355.75c6.46-3.27,11.94-7,18-8.95,21.06-6.89,44.47,9,46.61,31,1.36,14-3.43,25.21-14.42,33.91q-21.13,16.72-42.22,33.54c-5.49,4.35-8.43,4.35-13.83.09C332.25,434.13,318,423,303.86,411.64c-17.29-13.9-19.47-37-5.25-53.74,12.8-15.11,36.56-16.88,51.64-3.87C351.15,354.8,352.08,355.55,352.33,355.75Zm1,74.69c14.11-11.24,28.06-22.35,42-33.47a7.1,7.1,0,0,0,1.06-1.19c5.39-6.73,6.6-14.21,3.13-22-3.56-8-10.15-12.34-18.87-12.53-8.55-.19-15.12,3.79-19.09,11.47-1.83,3.53-4,6.38-8.37,6.31-4.15-.08-6.2-2.92-8-6.27-4.21-7.89-10.95-12-19.89-11.47s-15.65,5.34-18.66,13.94-1.16,16.87,6,22.79C325.89,409,339.6,419.56,353.31,430.44Z" transform="translate(-148 -215.34)"/><path fill="white" d="M459.26,442.51a7.77,7.77,0,0,1-7.7,8,8.05,8.05,0,0,1-8.07-8.09,8.19,8.19,0,0,1,8-7.82A7.84,7.84,0,0,1,459.26,442.51Z" transform="translate(-148 -215.34)"/><path fill="white" d="M333.55,278.62a7.93,7.93,0,1,1-15.86,0,8,8,0,0,1,8-7.79A7.87,7.87,0,0,1,333.55,278.62Z" transform="translate(-148 -215.34)"/><path fill="white" d="M260.77,337a8,8,0,0,1-8.08,8.08,7.94,7.94,0,0,1,.12-15.88A8.09,8.09,0,0,1,260.77,337Z" transform="translate(-148 -215.34)"/><path fill="white" d="M473.37,397.05a8.18,8.18,0,0,1-7.95,7.86,8,8,0,1,1,.22-15.91A8.11,8.11,0,0,1,473.37,397.05Z" transform="translate(-148 -215.34)"/><path fill="white" d="M399,482.34a8,8,0,0,1,8,7.78,8.37,8.37,0,0,1-8.22,8.08,7.93,7.93,0,0,1,.26-15.86Z" transform="translate(-148 -215.34)"/><path fill="white" d="M375.91,489.66a7.87,7.87,0,0,1,8,7.64,7.92,7.92,0,1,1-15.84.28A8,8,0,0,1,375.91,489.66Z" transform="translate(-148 -215.34)"/><path fill="white" d="M303.21,294.9a7.78,7.78,0,0,1-8-8,7.94,7.94,0,1,1,8,8Z" transform="translate(-148 -215.34)"/><path fill="white" d="M465.59,365.08a8,8,0,0,1,7.91,7.81,8.16,8.16,0,0,1-7.72,8.07,8.07,8.07,0,0,1-8.08-8.08A7.93,7.93,0,0,1,465.59,365.08Z" transform="translate(-148 -215.34)"/><path fill="white" d="M248.82,383.17a8.05,8.05,0,0,1-7.68,8.09,8.29,8.29,0,0,1-8.16-8.09,8.1,8.1,0,0,1,8-7.79A7.85,7.85,0,0,1,248.82,383.17Z" transform="translate(-148 -215.34)"/><path fill="white" d="M437.5,454.21a8,8,0,0,1,8,7.73,8.24,8.24,0,0,1-8.2,8,7.87,7.87,0,0,1,.23-15.74Z" transform="translate(-148 -215.34)"/><path fill="white" d="M283.06,292.21a7.77,7.77,0,0,1,7.76,7.88A8.12,8.12,0,0,1,283,308a7.79,7.79,0,0,1-7.88-8.16A7.71,7.71,0,0,1,283.06,292.21Z" transform="translate(-148 -215.34)"/><path fill="white" d="M252.18,359.66a7.77,7.77,0,1,1-7.56-8.05A7.73,7.73,0,0,1,252.18,359.66Z" transform="translate(-148 -215.34)"/><path fill="white" d="M242.71,415.2a8.1,8.1,0,0,1-8-7.76,7.89,7.89,0,0,1,8-8.09,7.71,7.71,0,0,1,7.76,7.81A8.13,8.13,0,0,1,242.71,415.2Z" transform="translate(-148 -215.34)"/><path fill="white" d="M461.09,412.69a7.74,7.74,0,0,1,7.7,7.9,7.83,7.83,0,0,1-8.27,7.76,7.93,7.93,0,0,1-7.53-8.12A7.79,7.79,0,0,1,461.09,412.69Z" transform="translate(-148 -215.34)"/><path fill="white" d="M273.71,317.11a7.87,7.87,0,0,1-8.27,7.79A8,8,0,0,1,258,317a7.89,7.89,0,0,1,8.15-7.93A7.7,7.7,0,0,1,273.71,317.11Z" transform="translate(-148 -215.34)"/><path fill="white" d="M419.86,470.4a7.8,7.8,0,0,1,7.71,7.91,8.1,8.1,0,0,1-8.25,7.89,7.86,7.86,0,0,1-7.43-8.22A7.65,7.65,0,0,1,419.86,470.4Z" transform="translate(-148 -215.34)"/></svg>