<svg width="1636" height="385" viewBox="0 0 1636 385" fill="none" xmlns="http://www.w3.org/2000/svg">
<path d="M0 288.906H526.458C526.458 288.906 551.982 250.696 568.211 271.533C568.211 271.533 573.236 288.554 584.541 287.5C595.845 286.446 642.723 287.5 642.723 287.5C642.723 287.5 659.304 283.333 660.359 310.346L687.34 1L712.462 379.887L722.812 296.839C722.812 296.839 714.371 282.178 755.823 277.157C759.906 277.564 764.02 276.808 767.692 274.978C771.364 273.148 774.443 270.318 776.574 266.813C784.914 254.361 806.72 210.728 806.72 210.728C806.72 210.728 825.411 184.77 844.102 210.728L870.078 267.818C870.078 267.818 879.424 286.496 898.114 280.27C910.33 276.655 923.331 276.655 935.546 280.27C944.763 286.43 955.61 289.699 966.698 289.659H1083.01C1083.01 289.659 1095.52 289.659 1098.64 282.379C1101.75 275.098 1116.27 253.307 1131.85 269.926L1139.14 282.379C1139.14 282.379 1146.42 290.663 1150.54 289.659C1154.66 288.655 1209.78 287.55 1209.78 287.55C1209.78 287.55 1219.12 285.492 1221.18 302.111L1224.3 312.455L1248.22 3.05864L1275.2 383L1285.6 297.894C1285.6 297.894 1288.71 282.328 1303.23 282.328C1317.75 282.328 1336.49 280.22 1341.67 268.822C1346.84 257.424 1370.76 212.787 1370.76 212.787C1370.76 212.787 1387.39 180.602 1405.93 207.766L1431.05 264.855C1431.05 264.855 1439.44 284.287 1460.15 281.475H1636" stroke="#F7F7F7" stroke-width="17" stroke-miterlimit="10"/>
</svg>
