<svg width="101" height="101" viewBox="0 0 101 101" fill="none" xmlns="http://www.w3.org/2000/svg">
<circle cx="50.3963" cy="50.5854" r="50.0272" fill="#25E39A" fill-opacity="0.6"/>
<path d="M49.6797 67.9134C48.9042 67.9134 48.2221 67.7267 47.6333 67.3534C47.0445 66.98 46.6639 66.463 46.4915 65.8024H45.8884C45.199 65.8024 44.5959 65.5439 44.0789 65.0269C43.5619 64.5099 43.3034 63.9067 43.3034 63.2174V57.0564C41.4077 55.8214 39.9142 54.2417 38.8227 52.3173C37.7313 50.3929 37.1855 48.2674 37.1855 45.9409C37.1855 42.4656 38.3991 39.5143 40.8261 37.0873C43.2531 34.6603 46.2043 33.4468 49.6797 33.4468C53.1551 33.4468 56.1063 34.6603 58.5333 37.0873C60.9604 39.5143 62.1739 42.4656 62.1739 45.9409C62.1739 48.2674 61.6282 50.3929 60.5367 52.3173C59.4453 54.2417 57.9517 55.8214 56.056 57.0564V63.2174C56.056 63.9067 55.7975 64.5099 55.2805 65.0269C54.7635 65.5439 54.1604 65.8024 53.471 65.8024H52.8679C52.6955 66.463 52.315 66.98 51.7262 67.3534C51.1374 67.7267 50.4552 67.9134 49.6797 67.9134ZM45.8884 63.2174H53.471V61.3217H45.8884V63.2174ZM45.8884 59.5984H53.471V57.875H45.8884V59.5984ZM45.5006 55.29H48.6888V49.3876L44.7251 45.4239L46.0607 44.0884L49.6797 47.7074L53.2987 44.0884L54.6343 45.4239L50.6706 49.3876V55.29H53.8588C55.5821 54.4858 56.968 53.2364 58.0163 51.5418C59.0647 49.8472 59.5889 47.9802 59.5889 45.9409C59.5889 43.1549 58.6339 40.8068 56.7238 38.8968C54.8138 36.9868 52.4658 36.0318 49.6797 36.0318C46.8937 36.0318 44.5456 36.9868 42.6356 38.8968C40.7256 40.8068 39.7705 43.1549 39.7705 45.9409C39.7705 47.9802 40.2947 49.8472 41.3431 51.5418C42.3914 53.2364 43.7773 54.4858 45.5006 55.29Z" fill="white"/>
</svg>
