<svg width="26" height="35" viewBox="0 0 26 35" fill="none" xmlns="http://www.w3.org/2000/svg">
<path d="M12.6797 34.9134C11.9042 34.9134 11.2221 34.7267 10.6333 34.3534C10.0445 33.98 9.66388 33.463 9.49155 32.8024H8.88838C8.19905 32.8024 7.59588 32.5439 7.07888 32.0269C6.56188 31.5099 6.30338 30.9067 6.30338 30.2174V24.0564C4.40771 22.8214 2.91416 21.2417 1.82271 19.3173C0.731269 17.3929 0.185547 15.2674 0.185547 12.9409C0.185547 9.46556 1.39906 6.51435 3.82609 4.08732C6.25312 1.66029 9.20433 0.446777 12.6797 0.446777C16.1551 0.446777 19.1063 1.66029 21.5333 4.08732C23.9604 6.51435 25.1739 9.46556 25.1739 12.9409C25.1739 15.2674 24.6282 17.3929 23.5367 19.3173C22.4453 21.2417 20.9517 22.8214 19.056 24.0564V30.2174C19.056 30.9067 18.7975 31.5099 18.2805 32.0269C17.7635 32.5439 17.1604 32.8024 16.471 32.8024H15.8679C15.6955 33.463 15.315 33.98 14.7262 34.3534C14.1374 34.7267 13.4552 34.9134 12.6797 34.9134ZM8.88838 30.2174H16.471V28.3217H8.88838V30.2174ZM8.88838 26.5984H16.471V24.875H8.88838V26.5984ZM8.50063 22.29H11.6888V16.3876L7.72513 12.4239L9.06071 11.0884L12.6797 14.7074L16.2987 11.0884L17.6343 12.4239L13.6706 16.3876V22.29H16.8588C18.5821 21.4858 19.968 20.2364 21.0163 18.5418C22.0647 16.8472 22.5889 14.9802 22.5889 12.9409C22.5889 10.1549 21.6339 7.80685 19.7238 5.89682C17.8138 3.98679 15.4658 3.03178 12.6797 3.03178C9.89366 3.03178 7.54562 3.98679 5.63559 5.89682C3.72556 7.80685 2.77055 10.1549 2.77055 12.9409C2.77055 14.9802 3.29473 16.8472 4.34309 18.5418C5.39145 20.2364 6.7773 21.4858 8.50063 22.29Z" fill="white"/>
</svg>
