<svg width="183" height="48" viewBox="0 0 183 48" fill="none" xmlns="http://www.w3.org/2000/svg">
<path d="M182.14 18.45V27.07C182.138 27.902 181.806 28.6991 181.218 29.2874C180.629 29.8757 179.832 30.2073 179 30.21V18.45C179.002 16.9814 178.509 15.5549 177.603 14.3997C176.696 13.2445 175.427 12.4275 174 12.08C173.487 11.9504 172.96 11.8866 172.43 11.89C170.69 11.89 169.022 12.5811 167.792 13.8114C166.561 15.0416 165.87 16.7102 165.87 18.45C165.865 18.5466 165.865 18.6434 165.87 18.74C165.866 18.7665 165.866 18.7935 165.87 18.82V27.07C165.868 27.902 165.536 28.6991 164.948 29.2874C164.359 29.8757 163.562 30.2073 162.73 30.21V18.65C162.725 18.5834 162.725 18.5165 162.73 18.45C162.73 17.1766 162.981 15.9158 163.469 14.7395C163.956 13.5632 164.671 12.4945 165.572 11.5946C166.473 10.6947 167.542 9.98109 168.719 9.49471C169.896 9.00833 171.157 8.75866 172.43 8.75997C172.963 8.75773 173.495 8.80123 174.02 8.88997C176.284 9.26648 178.34 10.434 179.823 12.1846C181.307 13.9353 182.121 16.1554 182.12 18.45" fill="white"/>
<path d="M63.6204 20.16V30.21H60.4004V16.92C61.2277 17.0078 61.9995 17.3779 62.5859 17.968C63.1724 18.5581 63.5377 19.3322 63.6204 20.16Z" fill="white"/>
<path d="M88.7098 30.21L82.4698 12.99L76.2798 30.21H73.0198L65.0898 9.00998C66.0544 9.00652 66.9959 9.30438 67.7829 9.86194C68.5699 10.4195 69.1632 11.2089 69.4798 12.12L74.6698 26.95L79.7498 12.13C80.0624 11.2195 80.6516 10.4293 81.435 9.86996C82.2185 9.31059 83.1572 9.00992 84.1198 9.00998L90.3598 26.95L95.4898 12.09C95.7986 11.1901 96.3811 10.4094 97.1558 9.85705C97.9305 9.30475 98.8585 9.00855 99.8098 9.00998L91.9698 30.21H88.7098Z" fill="white"/>
<path d="M120.71 19.59C120.71 22.4384 119.579 25.1702 117.565 27.1843C115.551 29.1985 112.819 30.33 109.97 30.33C107.122 30.33 104.39 29.1985 102.376 27.1843C100.362 25.1702 99.2305 22.4384 99.2305 19.59C99.2305 13.27 103.69 8.91998 109.97 8.91998C116.25 8.91998 120.71 13.27 120.71 19.59ZM102.36 19.59C102.36 24.25 105.54 27.47 109.97 27.47C114.4 27.47 117.57 24.25 117.57 19.59C117.57 14.93 114.39 11.74 109.97 11.74C105.55 11.74 102.36 14.96 102.36 19.59Z" fill="white"/>
<path d="M135.44 13.31C133.718 12.2183 131.729 11.62 129.69 11.58C127.31 11.58 125.5 12.42 125.5 14.4C125.5 19.1 137.33 16.69 137.33 24.29C137.33 28.48 133.63 30.29 129.57 30.29C126.581 30.3376 123.682 29.2677 121.44 27.29C121.578 27.014 121.769 26.7684 122.003 26.5678C122.238 26.3673 122.51 26.2159 122.804 26.1226C123.097 26.0293 123.407 25.9961 123.714 26.0248C124.021 26.0536 124.319 26.1437 124.59 26.29C126.16 27.1312 127.91 27.5807 129.69 27.6C132.18 27.6 134.19 26.68 134.23 24.6C134.36 19.5 122.49 22.11 122.53 14.6C122.53 10.53 126.03 8.83997 129.89 8.83997C131.209 8.83937 132.521 9.03829 133.78 9.42996C134.161 9.54691 134.511 9.7449 134.807 10.0103C135.103 10.2757 135.338 10.6021 135.496 10.9672C135.654 11.3322 135.731 11.7271 135.721 12.1247C135.711 12.5222 135.616 12.913 135.44 13.27" fill="white"/>
<path d="M149.55 8.72998C148.102 8.68594 146.66 8.93312 145.31 9.45681C143.959 9.98051 142.727 10.7701 141.688 11.7787C140.648 12.7873 139.821 13.9944 139.257 15.3285C138.692 16.6626 138.401 18.0964 138.401 19.545C138.401 20.9936 138.692 22.4274 139.257 23.7615C139.821 25.0955 140.648 26.3027 141.688 27.3113C142.727 28.3199 143.959 29.1095 145.31 29.6332C146.66 30.1569 148.102 30.404 149.55 30.36H160.36V19.54C160.36 16.673 159.221 13.9234 157.194 11.8962C155.167 9.86891 152.417 8.72998 149.55 8.72998ZM157.15 27.15H149.55C148.044 27.152 146.572 26.7071 145.319 25.8716C144.066 25.0362 143.089 23.8478 142.511 22.4568C141.934 21.0659 141.783 19.5349 142.076 18.0578C142.369 16.5807 143.094 15.2238 144.159 14.1589C145.224 13.094 146.581 12.3691 148.058 12.0757C149.535 11.7824 151.066 11.934 152.457 12.5112C153.848 13.0884 155.036 14.0654 155.872 15.3184C156.707 16.5713 157.152 18.044 157.15 19.55V27.15Z" fill="white"/>
<path d="M63.6098 17.98C63.6098 17.98 63.6098 17.79 63.6098 17.58C63.6098 16.16 63.7398 13.93 63.5098 12.09C63.2869 11.0979 62.7051 10.2233 61.8762 9.63441C61.0473 9.04552 60.03 8.78394 59.0198 8.89998C59.0198 9.54998 58.9598 10.67 59.0198 11.33C59.2098 13.22 59.4298 14.26 61.5498 16.04C61.7024 16.1594 61.8461 16.2897 61.9798 16.43C63.7998 18.26 63.5998 18.75 63.5998 18.8V17.98" fill="#47B549"/>
<path d="M75.3296 35.16H74.8496V40.96H75.3296V35.16Z" fill="white"/>
<path d="M82.8503 40.97H82.3703L79.0703 36H79.0503V40.97H78.5703V35.16H79.0503L82.3403 40.12L82.3703 40.11V35.16H82.8503V40.97Z" fill="white"/>
<path d="M87.5998 39.95L87.7098 40.36H87.7398L87.8498 39.95L89.5998 35.16H90.1098L87.9498 40.97H87.4998L85.3398 35.16H85.8598L87.5998 39.95Z" fill="white"/>
<path d="M95.6896 38.16H93.0796V40.56H96.0896V40.97H92.5996V35.16H96.0696V35.57H93.0796V37.75H95.6896V38.16Z" fill="white"/>
<path d="M102.01 39.56C102.013 39.4169 101.982 39.2752 101.919 39.1465C101.857 39.0178 101.764 38.9058 101.65 38.82C101.288 38.5635 100.881 38.3769 100.45 38.27C99.9415 38.1501 99.4599 37.9365 99.0299 37.64C98.8789 37.521 98.7571 37.369 98.6739 37.1956C98.5907 37.0223 98.5483 36.8322 98.5499 36.64C98.5467 36.4284 98.594 36.2192 98.6879 36.0296C98.7819 35.8401 98.9196 35.6756 99.0899 35.55C99.4857 35.2502 99.9738 35.0981 100.47 35.12C100.99 35.0954 101.5 35.2667 101.9 35.6C102.073 35.7533 102.209 35.9433 102.299 36.1561C102.389 36.3689 102.43 36.5992 102.42 36.83H101.98C101.99 36.6424 101.958 36.4549 101.885 36.2816C101.812 36.1084 101.701 35.954 101.56 35.83C101.26 35.5746 100.874 35.4424 100.48 35.46C100.099 35.4353 99.723 35.549 99.4198 35.78C99.302 35.8731 99.2066 35.9916 99.1409 36.1266C99.0751 36.2617 99.0405 36.4098 99.0398 36.56C99.0355 36.7008 99.065 36.8406 99.1259 36.9676C99.1868 37.0947 99.2773 37.2052 99.3898 37.29C99.7612 37.5456 100.179 37.7256 100.62 37.82C101.124 37.9503 101.599 38.1741 102.02 38.48C102.17 38.6 102.291 38.7522 102.374 38.9253C102.457 39.0984 102.5 39.288 102.5 39.48C102.503 39.6948 102.453 39.907 102.353 40.0973C102.254 40.2877 102.108 40.4501 101.93 40.57C101.513 40.8552 101.015 40.9989 100.51 40.98C99.9797 40.9905 99.4592 40.8369 99.0199 40.54C98.8124 40.4031 98.6454 40.213 98.5364 39.9897C98.4273 39.7663 98.3802 39.5178 98.3999 39.27H98.8399C98.8283 39.467 98.8695 39.6634 98.9591 39.8392C99.0488 40.015 99.1836 40.1637 99.3498 40.27C99.6985 40.5225 100.119 40.6558 100.55 40.65C100.937 40.6697 101.321 40.5607 101.64 40.34C101.77 40.2558 101.876 40.1402 101.95 40.0039C102.023 39.8675 102.061 39.7149 102.06 39.56" fill="white"/>
<path d="M109.24 35.57H107.27V40.97H106.79V35.57H104.75V35.16H109.24V35.57Z" fill="white"/>
<path d="M114.601 40.27H114.621L116.781 35.16H117.371V40.97H116.891V36.09H116.871L114.781 40.97H114.441L112.311 35.97H112.291V40.97H111.811V35.16H112.451L114.601 40.27Z" fill="white"/>
<path d="M123.56 38.16H120.96V40.56H123.97V40.97H120.48V35.16H123.95V35.57H120.96V37.75H123.56V38.16Z" fill="white"/>
<path d="M130.89 40.97H130.41L127.12 36H127.09V40.97H126.61V35.16H127.09L130.39 40.12L130.41 40.11V35.16H130.89V40.97Z" fill="white"/>
<path d="M137.84 35.57H135.86V40.97H135.39V35.57H133.34V35.16H137.84V35.57Z" fill="white"/>
<path d="M143.61 39.56C143.613 39.418 143.583 39.2773 143.522 39.1489C143.461 39.0206 143.372 38.908 143.26 38.82C142.895 38.5617 142.485 38.3751 142.05 38.27C141.544 38.1536 141.065 37.9396 140.64 37.64C140.488 37.5215 140.365 37.3698 140.28 37.1966C140.195 37.0233 140.151 36.833 140.15 36.64C140.147 36.4273 140.195 36.2169 140.291 36.027C140.386 35.8371 140.527 35.6734 140.7 35.55C141.096 35.2502 141.584 35.0981 142.08 35.12C142.597 35.095 143.105 35.2665 143.5 35.6C143.675 35.7528 143.812 35.9425 143.904 36.1552C143.996 36.368 144.039 36.5985 144.03 36.83H143.55C143.561 36.6424 143.528 36.4549 143.455 36.2817C143.383 36.1084 143.272 35.954 143.13 35.83C142.835 35.5735 142.451 35.4409 142.06 35.46C141.68 35.4335 141.303 35.5473 141 35.78C140.881 35.8721 140.783 35.9902 140.716 36.1253C140.648 36.2603 140.612 36.409 140.61 36.56C140.608 36.7006 140.638 36.8398 140.699 36.9666C140.759 37.0934 140.849 37.2041 140.96 37.29C141.332 37.5456 141.75 37.7256 142.19 37.82C142.695 37.9482 143.17 38.1723 143.59 38.48C143.74 38.6 143.861 38.7522 143.944 38.9253C144.027 39.0984 144.07 39.288 144.07 39.48C144.091 39.7032 144.054 39.928 143.963 40.1329C143.872 40.3377 143.73 40.5158 143.55 40.65C143.133 40.9339 142.635 41.0775 142.13 41.06C141.597 41.0694 141.074 40.9159 140.63 40.62C140.424 40.4816 140.259 40.2913 140.15 40.0683C140.041 39.8453 139.993 39.5975 140.01 39.35H140.46C140.447 39.5462 140.486 39.7424 140.574 39.9183C140.662 40.0941 140.795 40.2432 140.96 40.35C141.306 40.5727 141.71 40.6876 142.12 40.68C142.505 40.6982 142.884 40.5892 143.2 40.37C143.33 40.2858 143.437 40.1702 143.51 40.0339C143.584 39.8975 143.622 39.7449 143.62 39.59" fill="white"/>
<path d="M151 40.56H154V40.97H150.52V35.16H151V40.56Z" fill="white"/>
<path d="M159.5 35.57H157.52V40.97H157.05V35.57H155V35.16H159.5V35.57Z" fill="white"/>
<path d="M162.061 40.97V35.16H163.831C164.157 35.1507 164.482 35.209 164.785 35.3312C165.088 35.4533 165.362 35.6368 165.591 35.87C165.824 36.1103 166.007 36.3955 166.127 36.7083C166.247 37.0211 166.303 37.3551 166.291 37.69V38.44C166.304 38.7751 166.249 39.1093 166.129 39.4223C166.008 39.7353 165.825 40.0204 165.591 40.26C165.362 40.4932 165.088 40.6767 164.785 40.7989C164.482 40.9211 164.157 40.9793 163.831 40.97H162.061ZM162.541 35.57V40.57H163.831C164.097 40.5787 164.361 40.5295 164.606 40.4259C164.852 40.3223 165.071 40.1668 165.251 39.97C165.627 39.5552 165.828 39.0101 165.811 38.45V37.65C165.827 37.0931 165.626 36.5518 165.251 36.14C165.07 35.9448 164.85 35.7903 164.605 35.6869C164.36 35.5834 164.096 35.5334 163.831 35.54L162.541 35.57Z" fill="white"/>
<path d="M47.75 0.0899963V29.41H46.75C45.7423 29.4098 44.7574 29.1105 43.92 28.55L43.74 28.46C42.3637 28.0238 40.8862 28.0238 39.51 28.46C39.0954 28.5783 38.652 28.5421 38.2621 28.3582C37.8722 28.1743 37.5623 27.8551 37.39 27.46L34.71 21.39L34.66 21.31C34.4232 20.8857 34.0842 20.5272 33.6739 20.2671C33.2635 20.0069 32.7947 19.8532 32.31 19.82C31.8094 19.8737 31.3265 20.0357 30.8948 20.2947C30.4631 20.5537 30.0929 20.9036 29.81 21.32V21.39C29.81 21.39 27.57 25.99 26.75 27.26C26.5971 27.5352 26.3669 27.7596 26.0879 27.9053C25.8088 28.051 25.4932 28.1118 25.18 28.08H25.05C22.91 28.35 21.61 28.94 21.19 29.82C21.0377 30.1305 21.0022 30.4855 21.09 30.82L20.85 32.82L18.75 0L47.75 0.0899963Z" fill="#47B549"/>
<path d="M47.75 30.66V47.84H0V30.59H1.82999L2.00998 30.31C2.55998 29.47 3.74 28.13 4.59 28.1C4.71688 28.0987 4.84218 28.1281 4.95532 28.1855C5.06846 28.243 5.16611 28.3268 5.23999 28.43C5.38999 28.88 6.05999 30.58 7.51999 30.43C8.30999 30.36 11.06 30.43 13.38 30.43L13.43 30.2V30.44H13.54C13.6293 30.4222 13.7215 30.4246 13.8097 30.4471C13.898 30.4696 13.9801 30.5116 14.05 30.57C14.25 30.8026 14.4016 31.0728 14.496 31.3647C14.5904 31.6565 14.6258 31.9643 14.6 32.27V32.5H15.81L17.89 7.79999L19.94 39.85H21.13L22.25 30.64L22.16 30.49C22.1485 30.4474 22.1485 30.4026 22.16 30.36C22.22 30.24 22.63 29.62 24.98 29.31C25.5092 29.3504 26.0393 29.2427 26.5109 28.999C26.9824 28.7553 27.3769 28.3851 27.65 27.93C28.46 26.68 30.39 22.73 30.75 21.99C30.81 21.9 31.48 21.05 32.22 21.05C32.4909 21.0871 32.7495 21.1869 32.9751 21.3414C33.2008 21.4959 33.3873 21.7009 33.52 21.94L36.19 27.94C36.4894 28.6079 37.0227 29.1433 37.6895 29.4454C38.3562 29.7474 39.1104 29.7953 39.81 29.58C40.9126 29.2504 42.0874 29.2504 43.19 29.58C44.2238 30.2459 45.4304 30.5936 46.66 30.58L47.75 30.66Z" fill="#00B1DA"/>
<path d="M0 0.0899658V29.34H1.17999C1.75999 28.53 3.08999 26.9 4.54999 26.84C4.89044 26.8327 5.22714 26.9124 5.52814 27.0717C5.82914 27.2309 6.08448 27.4644 6.26999 27.75L6.38 27.96C6.48 28.29 6.87 29.25 7.38 29.2C8.53 29.09 12.89 29.2 13.38 29.2C13.6294 29.1597 13.8845 29.1718 14.1289 29.2355C14.3734 29.2992 14.6019 29.4131 14.8 29.5699L17.29 0.0799561L0 0.0899658ZM8.23999 16.89V17.19V17.74C8.24596 17.7764 8.24596 17.8135 8.23999 17.8499V17.74C8.23999 17.55 8.06 17.0799 7.19 16.0399C7.10858 15.9355 7.02179 15.8354 6.92999 15.74C6.41059 15.298 5.99452 14.7475 5.71115 14.1272C5.42778 13.5069 5.284 12.8319 5.28998 12.15C5.28998 11.65 5.28998 10.8 5.28998 10.3C6.45998 9.99996 8.03 11.25 8.19 12.7299C8.35 14.2099 8.18998 15.83 8.25998 16.91" fill="#47B549"/>
</svg>
