<svg width="101" height="101" viewBox="0 0 101 101" fill="none" xmlns="http://www.w3.org/2000/svg">
<circle cx="50.0956" cy="50.5854" r="50.0272" fill="white" fill-opacity="0.2"/>
<circle cx="50.0956" cy="50.5854" r="48.0272" stroke="#25E39A" stroke-opacity="0.4" stroke-width="4"/>
<path d="M49.6802 46.3718C47.7846 46.3718 46.2336 45.7686 45.0272 44.5623C43.8209 43.3559 43.2177 41.8049 43.2177 39.9093C43.2177 38.0136 43.8209 36.4626 45.0272 35.2563C46.2336 34.0499 47.7846 33.4468 49.6802 33.4468C51.5759 33.4468 53.1269 34.0499 54.3332 35.2563C55.5396 36.4626 56.1427 38.0136 56.1427 39.9093C56.1427 41.8049 55.5396 43.3559 54.3332 44.5623C53.1269 45.7686 51.5759 46.3718 49.6802 46.3718ZM49.6802 43.7868C50.8004 43.7868 51.7267 43.4206 52.4591 42.6882C53.1915 41.9557 53.5577 41.0294 53.5577 39.9093C53.5577 38.7891 53.1915 37.8628 52.4591 37.1304C51.7267 36.398 50.8004 36.0318 49.6802 36.0318C48.5601 36.0318 47.6338 36.398 46.9013 37.1304C46.1689 37.8628 45.8027 38.7891 45.8027 39.9093C45.8027 41.0294 46.1689 41.9557 46.9013 42.6882C47.6338 43.4206 48.5601 43.7868 49.6802 43.7868ZM35.8936 67.9134V56.5394C35.8936 55.448 36.1664 54.5145 36.7121 53.739C37.2579 52.9635 37.9616 52.3747 38.8232 51.9726C40.2881 51.312 41.9324 50.716 43.7563 50.1847C45.5801 49.6533 47.5548 49.3876 49.6802 49.3876C51.8057 49.3876 53.7731 49.6533 55.5826 50.1847C57.3921 50.716 59.0293 51.312 60.4941 51.9726C61.3845 52.3747 62.1026 52.9635 62.6483 53.739C63.194 54.5145 63.4669 55.448 63.4669 56.5394V65.3284C63.4669 66.0178 63.2084 66.6209 62.6914 67.1379C62.1744 67.6549 61.5712 67.9134 60.8819 67.9134H45.8027C44.5964 67.9134 43.5767 67.497 42.7438 66.664C41.9109 65.8311 41.4944 64.8114 41.4944 63.6051C41.4944 62.3988 41.9109 61.3791 42.7438 60.5462C43.5767 59.7133 44.5964 59.2968 45.8027 59.2968H50.8866L53.9886 52.4034C53.2418 52.2598 52.5022 52.1521 51.7698 52.0803C51.0373 52.0085 50.3408 51.9726 49.6802 51.9726C47.6122 51.9726 45.7668 52.2096 44.144 52.6835C42.5212 53.1574 41.0923 53.6959 39.8572 54.2991C39.4551 54.5002 39.1248 54.8018 38.8663 55.2039C38.6078 55.606 38.4786 56.0512 38.4786 56.5394V67.9134H35.8936ZM45.8027 65.3284H48.1292L49.7233 61.8818H45.8027C45.3432 61.8818 44.9411 62.0541 44.5964 62.3988C44.2517 62.7434 44.0794 63.1456 44.0794 63.6051C44.0794 64.0647 44.2517 64.4668 44.5964 64.8114C44.9411 65.1561 45.3432 65.3284 45.8027 65.3284ZM50.9727 65.3284H60.8819V56.5394C60.8819 56.0512 60.7455 55.606 60.4726 55.2039C60.1997 54.8018 59.8622 54.5002 59.4601 54.2991C59.1155 54.1268 58.699 53.9401 58.2107 53.739C57.7224 53.538 57.1624 53.3226 56.5305 53.0928L50.9727 65.3284Z" fill="white"/>
</svg>
