<svg width="29" height="35" viewBox="0 0 29 35" fill="none" xmlns="http://www.w3.org/2000/svg">
<path d="M14.6802 13.3718C12.7846 13.3718 11.2336 12.7686 10.0272 11.5623C8.82089 10.3559 8.21772 8.80494 8.21772 6.90928C8.21772 5.01361 8.82089 3.46261 10.0272 2.25628C11.2336 1.04994 12.7846 0.446777 14.6802 0.446777C16.5759 0.446777 18.1269 1.04994 19.3332 2.25628C20.5396 3.46261 21.1427 5.01361 21.1427 6.90928C21.1427 8.80494 20.5396 10.3559 19.3332 11.5623C18.1269 12.7686 16.5759 13.3718 14.6802 13.3718ZM14.6802 10.7868C15.8004 10.7868 16.7267 10.4206 17.4591 9.68815C18.1915 8.95574 18.5577 8.02944 18.5577 6.90928C18.5577 5.78911 18.1915 4.86282 17.4591 4.1304C16.7267 3.39799 15.8004 3.03178 14.6802 3.03178C13.5601 3.03178 12.6338 3.39799 11.9013 4.1304C11.1689 4.86282 10.8027 5.78911 10.8027 6.90928C10.8027 8.02944 11.1689 8.95574 11.9013 9.68815C12.6338 10.4206 13.5601 10.7868 14.6802 10.7868ZM0.893555 34.9134V23.5394C0.893555 22.448 1.16642 21.5145 1.71214 20.739C2.25786 19.9635 2.96155 19.3747 3.82322 18.9726C5.28805 18.312 6.9324 17.716 8.75626 17.1847C10.5801 16.6533 12.5548 16.3876 14.6802 16.3876C16.8057 16.3876 18.7731 16.6533 20.5826 17.1847C22.3921 17.716 24.0293 18.312 25.4941 18.9726C26.3845 19.3747 27.1026 19.9635 27.6483 20.739C28.194 21.5145 28.4669 22.448 28.4669 23.5394V32.3284C28.4669 33.0178 28.2084 33.6209 27.6914 34.1379C27.1744 34.6549 26.5712 34.9134 25.8819 34.9134H10.8027C9.59639 34.9134 8.57675 34.497 7.7438 33.664C6.91086 32.8311 6.49439 31.8114 6.49439 30.6051C6.49439 29.3988 6.91086 28.3791 7.7438 27.5462C8.57675 26.7133 9.59639 26.2968 10.8027 26.2968H15.8866L18.9886 19.4034C18.2418 19.2598 17.5022 19.1521 16.7698 19.0803C16.0373 19.0085 15.3408 18.9726 14.6802 18.9726C12.6122 18.9726 10.7668 19.2096 9.14401 19.6835C7.52121 20.1574 6.09228 20.6959 4.85722 21.2991C4.45511 21.5002 4.1248 21.8018 3.8663 22.2039C3.6078 22.606 3.47855 23.0512 3.47855 23.5394V34.9134H0.893555ZM10.8027 32.3284H13.1292L14.7233 28.8818H10.8027C10.3432 28.8818 9.94106 29.0541 9.59639 29.3988C9.25172 29.7434 9.07939 30.1456 9.07939 30.6051C9.07939 31.0647 9.25172 31.4668 9.59639 31.8114C9.94106 32.1561 10.3432 32.3284 10.8027 32.3284ZM15.9727 32.3284H25.8819V23.5394C25.8819 23.0512 25.7455 22.606 25.4726 22.2039C25.1997 21.8018 24.8622 21.5002 24.4601 21.2991C24.1155 21.1268 23.699 20.9401 23.2107 20.739C22.7224 20.538 22.1624 20.3226 21.5305 20.0928L15.9727 32.3284Z" fill="white"/>
</svg>
