<svg width="101" height="101" viewBox="0 0 101 101" fill="none" xmlns="http://www.w3.org/2000/svg">
<circle cx="50.6971" cy="50.5854" r="50.0272" fill="white" fill-opacity="0.2"/>
<circle cx="50.6971" cy="50.5854" r="48.0272" stroke="#25E39A" stroke-opacity="0.4" stroke-width="4"/>
<path d="M44.9071 68.7751L41.6328 63.1743L35.1272 61.8387L35.8596 55.5054L31.7236 50.6801L35.8596 45.8978L35.1272 39.5646L41.6328 38.229L44.9071 32.5851L50.6803 35.2562L56.4535 32.5851L59.7709 38.229L66.2334 39.5646L65.501 45.8978L69.637 50.6801L65.501 55.5054L66.2334 61.8387L59.7709 63.1743L56.4535 68.7751L50.6803 66.1039L44.9071 68.7751ZM46.0704 65.3715L50.6803 63.4328L55.4195 65.3715L58.306 61.0632L63.3468 59.7707L62.8298 54.6438L66.3195 50.6801L62.8298 46.6302L63.3468 41.5033L58.306 40.297L55.3333 35.9887L50.6803 37.9274L45.9411 35.9887L43.0545 40.297L38.0138 41.5033L38.5308 46.6302L35.041 50.6801L38.5308 54.6438L38.0138 59.8568L43.0545 61.0632L46.0704 65.3715ZM48.8277 56.4102L58.6076 46.7164L56.6689 44.95L48.8277 52.705L44.7348 48.4398L42.753 50.3785L48.8277 56.4102Z" fill="#FEFFFF"/>
</svg>
